<?xml version="1.0" encoding="utf-8"?>
<!-- Generator: Adobe Illustrator 16.0.0, SVG Export Plug-In . SVG Version: 6.00 Build 0)  -->
<!DOCTYPE svg PUBLIC "-//W3C//DTD SVG 1.1//EN" "http://www.w3.org/Graphics/SVG/1.1/DTD/svg11.dtd">
<svg version="1.1" id="Layer_1" xmlns="http://www.w3.org/2000/svg" xmlns:xlink="http://www.w3.org/1999/xlink" x="0px" y="0px"
   width="280px" height="200px" viewBox="0 0 280 200" enable-background="new 0 0 280 200" xml:space="preserve">
<g>
  <ellipse fill-opacity="0.65" cx="59.017" cy="140.979" rx="57.636" ry="4.841"/>
  <path fill="#A75214" d="M12.208,108.752c0,0,1.466,17.389,0.838,19.063c-0.516,1.373-2.282,5.143-2.2,7.438
    c0.105,2.93,1.733,4.801,3.247,4.924c10.266,0.84,17.492-14.665,17.492-14.665c2.199,2.306,0.82,17.105,9.218,16.864
    c7.334-0.209,7.778-10.343,7.778-10.343c18.331,2.042,25.532-0.236,25.532-0.236s-3.038,4.085-2.409,7.647
    c0.282,1.6,1.462,3.461,2.618,3.873c10.266,3.666,15.817-12.096,22.73-17.965c0,0,3.037,3.037,3.142,6.287
    c0,0-0.217,3.529-0.314,5.027c-0.211,3.245,4.713,5.342,8.013,2.199c12.26-11.676,9.451-32.939,9.094-36.004
    c-1.273-10.943-7.157-23.859-7.157-23.859c-0.416-6.493,3.354-26.605-12.15-39.175c-10.707-8.682-19.901-7.96-22.624-7.96
    c-11.105,0-17.485,4.381-16.76,9.217c1.257,8.38,11.521,4.211,16.76,4.609c16.55,1.257,19.692,10.266,19.692,13.617
    c-0.001,3.796-4.4,11.104-11.73,9.637c-8.414-1.683-20.322-3.563-30.796-15.084c3.037-7.436,3.638-9.569,2.514-12.57
    c-1.258-3.357-11.104-0.628-11.104-0.628s-3.352-1.675-5.448-1.676c-2.094-0.001-5.026,1.466-5.026,1.466s-3.144-3.562-6.286-3.352
    c-4.021,0.268-6.284,2.936-6.284,2.936s-3.457-1.363-5.762-0.944c-3.134,0.57-5.971,2.618-5.971,2.618s-2.294-1.599-5.027-1.258
    c-3.354,0.419-3.471,1.248-3.563,2.305c-0.161,1.878-0.35,5.689,0,7.542c0.305,1.612,0.839,3.771,2.934,5.866
    c-1.258,4.4-3.862,4.835-3.04,20.74C0.894,91.102,12.208,108.752,12.208,108.752z"/>
  <g>
    <polygon fill="#F58534" points="27.528,53.385 27.529,52.89 27.615,52.906    "/>
    <path fill="#F58534" d="M9.379,51.35c5.866-0.523,10.58-2.094,12.255-5.865c1.24,0.368,2.349,0.748,3.332,0.867l-0.009,4.499
      L9.092,53.426l0.042,1.489l13.519-2.11L6.942,58.751l0.367,1.53l17.642-6.518l-0.017,8.351H27.5l0.023-7.644l18.396,5.83
      l0.446-1.506l-17.101-5.559l15.964,3.144l0.188-1.639L27.535,51.1l0.015-4.662c2.524-0.164,3.669-1.137,3.669-1.137
      s4.87,8.445,13.982,5.302c3.771,5.028,6.114,6.64,7.423,7.904c-3.966,6.983,0.748,5.726,2.425,2.271
      c1.043,0.972,2.217,1.866,3.482,2.688c0.299,0.194-1.414,0.966-2.436,3.177c-0.628,1.361-0.314,6.703,3.038,3.038
      c0.33-0.361,0.838-0.943,2.231-4.565c0.934,0.489,1.898,0.944,2.877,1.371l-1.6,4.188c-2.961,10.131,4.971,2.562,4.333-3.081
      c1.158,0.434,2.32,0.83,3.467,1.189l-1.516,4.092c-2.033,12.989,5.358,2.754,4.486-3.228c2.263,0.609,4.784,1.186,4.784,1.186
      l-0.881,4.094c-1.688,13.424,3.913,0.908,4.101-3.537c1.303,0.209,2.511,0.289,3.625,0.257l0.383,3.586
      c2.508,12.54,5.327,1.856,2.532-3.967c1.595-0.373,2.947-0.989,4.084-1.766l2.025,3.375c3.903,6.869,7.872,2.256,0.215-5.356
      c0.804-0.921,1.423-1.903,1.884-2.866l3.241,1.595c4.19,0.494,5.911-3.021-2.221-4.773c0.038-0.248,0.063-0.483,0.074-0.696
      c0.05-1.021-0.017-2.027-0.188-3.012l2.177-0.55c3.834-2.485,0.497-4.503-3.021-2.321c-0.417-0.992-0.961-1.949-1.635-2.857
      l1.62-1.317c3.457-4.608-1.151-5.028-3.562-0.837l-3.063-2.305l0.864-1.807c0.723-3.649-3.557-2.061-3.377,0.504
      c-1.258-0.566-3.745-1.42-3.745-1.42l0.104-1.99c-0.409-2.357-2.694-1.775-3.088,1.292c-1.679-0.344-4.664-0.742-4.664-0.742
      l0.079-1.101c-0.104-2.828-3.917-3.398-3.456,1.021c0,0-2.254,0.245-3.622,0.439l-0.46-1.696
      c-0.311-1.338-3.415-1.856-2.854,2.073c-2.358,0.121-4.058-0.383-4.454-2.963c-0.71-4.622,5.971-6.494,13.408-6.599
      c2.56-0.036,11.882-0.271,20.839,6.413c14.146,10.556,12.262,31.712,11.842,38.521c0,0,6.114,12.454,7.41,23.036
      c0.371,3.039,3.169,22.319-8.459,33.318c-2.36,2.235-3.045-0.566-3.14-2.095c-0.088-1.431-0.055-2.032-0.002-3.245
      c0.1-2.305-3.981-7.855-3.981-7.855c9.638-8.275,10.725-19.222,10.496-19.482c-0.21-0.238-1.382,0.818-1.552,0.629
      c-0.431-0.479-2.029,10.788-10.932,17.598c-3.352,1.78-12.154,19.494-18.645,17.912c-0.947-0.23-4.399,0.135-4.399-1.99
      c0-2.203,10.841-17.31,2.199-29.436l-2.199,0.629c5.97,7.936,1.413,19.797,1.413,19.797c-8.562,2.751-26.554,0.314-26.554,0.314
      c0.314-14.454-1.728-19.639-1.728-19.639l-2.514-0.787c0,0,4.828,27.547-1.414,28.439l-5.762-0.893
      c-0.384-0.449-0.731-4.084-2.513-9.637c-0.42-1.361-9.795-18.174-10.737-19.64c-0.332-0.517-1.833-0.474-2.566,0.364
      c1.361,5.343,9.401,16.275,9.401,16.275l-11.391-9.466c0,0-14.979-17.807-16.759-36.876C1.26,61.632,8.541,52.397,9.379,51.35z"/>
  </g>
  <path fill="#FDB660" d="M48.659,128.652c0,0,16.499,2.515,26.554-0.313c1.257-4.085,3.771-11.627,0-17.598
    c-4.242,1.571-15.712,2.985-27.494,0.157C49.288,118.755,48.659,128.652,48.659,128.652z"/>
  <path fill="#FDB660" d="M37.138,135.986c1.414,4.242,4.607,4.923,7.122,0.521c0.608-1.064,1.257-3.299,1.257-3.299
    c-0.628-1.257-9.009-0.786-9.009-0.786S36.777,134.904,37.138,135.986z"/>
  <path fill="#F58534" d="M15.14,111.789c0,0,1.116,14.732,0.524,16.337c-0.484,1.313-1.609,5.043-2.305,7.126l8.275-0.785
    c4.713-3.719,7.542-9.795,7.542-9.795S19.959,119.854,15.14,111.789z"/>
  <path fill="#FDB660" d="M13.464,135.566c0.629,2.357,1.854,2.258,3.458,2.043c2.356-0.314,4.713-3.143,4.713-3.143
    c-0.471-2.828-6.809-3.822-6.809-3.822S13.169,134.465,13.464,135.566z"/>
  <path fill="#FDB660" d="M12.208,102.257c5.499,13.199,18.619,20.884,18.619,20.884S20.221,107.756,18.65,98.172
    C16.606,93.458,7.179,89.845,12.208,102.257z"/>
  <path fill="#502C11" d="M25.876,85.916c-7.071,0-11.296-6.287-11.156-11.312c0.21-7.543,4.4-21.125,11.627-21.369
    c6.181-0.209,11.209,11.941,11.209,20.74C37.556,79.317,34.519,85.916,25.876,85.916z"/>
  <path fill="#FDB660" d="M73.694,138.396c-0.157,2.984,3.216,3.365,4.818,3.142c3.136-0.44,9.427-9.114,9.427-9.114
    c-7.855,3.458-13.041,1.887-13.041,1.887S73.753,137.255,73.694,138.396z"/>
  <path fill="#FDB660" d="M102.29,135.881c0,1.414,0.971,2.2,2.619,1.571c2.959-1.126,6.914-10.056,6.914-10.056
    c-6.182,5.236-8.904,4.19-8.904,4.19S102.29,134.739,102.29,135.881z"/>
  <path fill="#F58534" d="M45.36,42.708c0,0,6.716-1.914,7.175,0.574c0.523,2.831-0.104,4.298-2.461,9.01l-2.829-3.456
    C47.458,44.642,45.36,42.708,45.36,42.708z"/>
  <path fill="#F58534" d="M4.666,53.55c-1.676-0.837-2.304-2.617-2.514-3.666c-0.354-1.767-0.151-4.07,0-5.867
    c0.086-1.011,1.913-2.08,5.028-0.523c-1.885,2.513,0,5.656,0,5.656L4.666,53.55z"/>
  <path fill="#FFFFFF" d="M33.367,43.285c0.417,2.828,3.553,4.727,5.131,5.133c1.515,0.389,5.867,0.942,6.182-1.887
    c0.246-2.226-3.457-4.504-3.457-4.504c-1.205,4.609-5.447,1.309-4.085-0.943C37.138,41.084,33.136,41.73,33.367,43.285z"/>
  <path fill="#FFFFFF" d="M8.856,46.321c0.103,4.923,10.787,1.257,10.893-2.828c0.058-2.238-2.514-2.042-2.514-2.042
    c-0.943,4.4-4.871,2.828-3.876,0.157C13.358,41.608,8.789,43.153,8.856,46.321z"/>
  <path fill="#FDB660" d="M36.717,66.853c0.42-15.922-9.217-19.378-9.217-19.378l0.104,5.866
    C27.605,53.34,33.208,54.335,36.717,66.853z"/>
  <path fill="#FDB660" d="M15.925,66.539c-0.446-15.765,9.009-18.882,9.009-18.882l-0.157,5.787
    C24.777,53.444,19.906,53.97,15.925,66.539z"/>
  <ellipse fill="#FFFFFF" cx="26.82" cy="40.508" rx="2.356" ry="1.414"/>
  <path fill="#C2053C" d="M18.701,79.317c0,2.024,3.435,5.237,7.542,5.237c4.108,0,7.333-3.213,7.333-5.237
    c0-2.025-2.514-2.828-3.667-2.828c-0.536,0-2.265,0.08-3.038,0.523c-0.771,0.443-0.59,1.251-1.151,1.257
    c-0.496,0.005,0.113-0.855-0.839-1.257c-0.728-0.307-2.461-0.51-3.142-0.419C19.705,76.866,18.701,78.233,18.701,79.317z"/>
  <path fill="#FFFFFF" d="M23.52,59.693c-0.524-2.42,5.761-2.601,5.342,0.018l1.78-0.061c-1.623-6.442-7.438-6.612-8.799,0.043H23.52
    z"/>
  <path fill="#FFFFFF" d="M22.42,80.574c0.707,2.121,7.542,1.807,7.62,0.157l2.2,0.078c-0.785,5.028-11.785,5.106-11.785-0.393
    L22.42,80.574z"/>
  <path fill="#FDB660" d="M47.245,48.836c0,0,0.912,1.331,1.31,1.152c1.108-0.496,2.473-4.336,1.362-5.447
    c-0.444-0.444-3.261,0.249-3.261,0.249S47.441,46.636,47.245,48.836z"/>
  <path fill="#FDB660" d="M7.179,49.15c0,0-1.466,2.724-2.631,1.414C3.74,49.656,2.73,45.626,3.84,44.515
    c0.444-0.444,2.592,0.315,2.592,0.315S5.961,47.382,7.179,49.15z"/>
</g>
<g>
  <ellipse fill-opacity="0.65" cx="167.333" cy="115.832" rx="32.834" ry="5.151"/>
  <path fill="#A75214" d="M194.693,1.825c-4.986-2.702-16.309,0.804-16.309,0.804c-6.546-3.541-19.53-3.434-26.075-0.107
    c0,0-14.538-4.204-16.543-0.959c-2.446,3.964,3.24,14.265,3.24,14.265c-9.846,38.635,3.112,103.443,13.198,103.005
    c7.12-0.307,12.875-23.818,11.911-39.913c2.574,1.288,2.897,0.967,6.114-0.323c0.967,9.335,1.719,39.94,12.878,40.021
    c6.987,0.052,10.019-18.29,11.266-39.698c1.374-23.613-0.332-50.639-4.506-61.161C193.479,11.854,198.557,3.917,194.693,1.825z"/>
  <path fill="#F58534" d="M178.385,5.956c-3.147-1.684-6.882-2.479-10.73-2.647v4.578c14.486-2.175,10.865,4.162,0,1.892l0.041,2.649
    c11.226-1.703,14.363,3.5-0.041,1.797v3.406c15.531-4.163,17.463,4.448,0,1.892v3.5c12.635-2.554,14.968,3.238,0,2.575
    l-0.081,4.089c12.071-3.5,18.026,4.677,0.081,2.312l-0.973,7.65c-0.959,0.563-2.004,0.644-2.936,0l-0.953-7.652
    c-17.943,2.368-11.979-5.853,0.091-2.352l-0.23-4.067c-14.968,0.663-12.382-5.108-0.149-2.554v-3.5
    c-17.383,2.553-15.452-6.054,0-1.891v-3.406c-14.164,1.703-11.113-3.5,0.113-1.797l-0.035-2.651
    c-10.866,2.271-14.242-4.066-0.078-1.891V3.437c-3.773,0.341-7.462,1.179-10.624,2.305c-24.464,9.765-8.356,95.535-4.94,102.726
    c-0.048-0.16,10.744-0.813,10.734-0.738c0,0,5.795-22.048,2.897-35.568l12.555,0.322c-0.644,11.267,0,23.5,4.507,37.342
    l10.224-0.067C187.856,109.755,201.775,26.771,178.385,5.956z"/>
  <path fill="#A75214" d="M189.022,14.443c0.004-0.003,0.009-0.007,0.015-0.008l-2.312-4.047c-0.017-0.02-0.03-0.04-0.046-0.061
    L189.022,14.443z"/>
  <path fill="#FDB660" d="M146.94,108.467c0,0,2.647,6.33,5.102,6.505c2.253,0.162,5.574-6.72,5.633-7.241
    C157.676,107.73,151.881,106.389,146.94,108.467z"/>
  <path fill="#F58534" d="M138.109,3.517c-0.557,3.013-0.927,4.585,2.618,9.587c3.751-7.147,8.688-9.079,8.688-9.079
    S138.599,0.87,138.109,3.517z"/>
  <path fill="#FDB660" d="M177.634,109.821c-0.15-0.277,1.41,6.093,5.122,6.439c3.461,0.32,4.905-5.862,5.101-6.506
    C187.906,109.594,178.982,108.899,177.634,109.821z"/>
  <path fill="#F58534" d="M193.582,4.053c-0.506-2.647-12.837,0.078-12.837,0.078c0.269,0.501,2.729,1.866,5.935,6.197
    c0.014,0.021,0.029,0.041,0.044,0.061c0.895,1.214,1.841,2.644,2.82,4.367C192.764,10.892,194.163,7.067,193.582,4.053z"/>
  <path fill="#A75214" d="M193.404,20.013c0.772-5.146-8.212-9.542-20.026-9.542c-2.898,0-12.678-0.767-24.073,8.47
    c-10.766,8.729-1.394,31.653,5.26,43.884c-0.215,11.804,21.372,9.723,23.82,1.717c2.789-9.12-8.479-14.915-8.479-14.915
    c-5.793-4.829-14.914-19.422,3.471-24.446C178.771,23.709,192.069,28.929,193.404,20.013z"/>
  <path fill="#F58534" d="M174.802,12.94c-2.723-0.038-10.58-1.619-22.17,6.823c-13.055,9.507,2.406,34.246,5.343,44.767
    c-0.821,6.14,5.362,11.522,9.038,11.601c3.669,0.076,9.44-4.721,9.012-11.588c0.071-5.244-1.981-8.652-4.724-10.297l0.004-0.004
    c-0.029-0.018-0.061-0.035-0.091-0.051c-0.016-0.011-0.033-0.019-0.046-0.026c-12.23-6.795-22.907-35.957,13.158-31.051
    c2.51,0.129,6.082-0.033,6.504-2.779C191.587,15.418,182.715,13.053,174.802,12.94z"/>
  <ellipse fill="#FDB660" cx="167.868" cy="66.044" rx="2.146" ry="2.576"/>
</g>
<g>
  <ellipse fill-opacity="0.65" cx="129.159" cy="194.48" rx="35.193" ry="5.52"/>
  <g>
    <path fill="none" d="M109.956,118.323c-0.009,0.477,0.076,0.863,0.25,1.135l3.871-1.679c0.295-0.386,0.592-0.84,0.891-1.339
      L109.956,118.323z"/>
    <path fill="#A75214" d="M136.846,69.356c-3.104,0-13.59-0.822-25.802,9.077c-17.682,14.336-13.382,37.271-13.857,44.678
      l3.112-1.167c-0.57-9.163-1.443-30.929,13.618-42.168c10.215-7.622,20.846-7.356,23.766-7.314
      c8.48,0.118,16.101,2.255,15.29,7.526c-0.451,2.942-2.389,3.517-5.079,3.379c0.642-4.482-2.902-3.892-3.253-2.365l-0.527,1.935
      c-1.563-0.222-4.131-0.5-4.131-0.5c0.524-5.042-3.824-4.39-3.942-1.166l0.088,1.255c0,0-3.403,0.453-5.316,0.845
      c-0.448-3.498-3.056-4.161-3.521-1.473l0.119,2.269c0,0-2.838,0.974-4.274,1.62c0.205-2.925-4.673-4.736-3.852-0.575l0.988,2.061
      l-3.495,2.628c-2.748-4.777-8.005-4.299-4.063,0.956l1.848,1.5c-0.766,1.035-1.387,2.126-1.863,3.259
      c-4.011-2.489-7.817-0.188-3.448,2.648l2.484,0.627c-0.193,1.122-0.271,2.268-0.212,3.434c0.011,0.243,0.042,0.512,0.084,0.794
      c-9.273,1.998-7.312,6.007-2.533,5.444l3.698-1.82c0.523,1.099,1.231,2.218,2.149,3.269c-3.602,3.581-4.94,6.573-4.965,8.31
      l5.014-1.881c0.067-0.11,0.13-0.204,0.197-0.32l2.31-3.848c1.096,0.749,2.38,1.355,3.848,1.786l6.444-2.416
      c-8.357,1.671-13.375-6.661-13.375-10.991c-0.002-3.822,3.583-14.097,22.457-15.528c5.973-0.454,17.678,4.299,19.113-5.257
      C156.786,74.35,149.509,69.356,136.846,69.356z"/>
    <path fill="#F58534" d="M109.956,118.323c0.023-1.738,1.363-4.729,4.963-8.31c-0.916-1.051-1.624-2.172-2.15-3.269l-3.697,1.82
      c-4.778,0.563-6.74-3.445,2.533-5.443c-0.043-0.283-0.072-0.552-0.083-0.795c-0.057-1.165,0.02-2.312,0.213-3.434l-2.484-0.628
      c-4.372-2.835-0.566-5.135,3.446-2.647c0.476-1.132,1.096-2.225,1.864-3.26l-1.848-1.501c-3.94-5.255,1.315-5.734,4.063-0.955
      l3.497-2.628l-0.988-2.06c-0.825-4.164,4.056-2.353,3.852,0.574c1.434-0.646,4.271-1.62,4.271-1.62l-0.118-2.27
      c0.469-2.689,3.074-2.023,3.521,1.472c1.915-0.391,5.318-0.844,5.318-0.844l-0.089-1.256c0.117-3.225,4.466-3.875,3.941,1.166
      c0,0,2.57,0.279,4.13,0.5l0.528-1.934c0.353-1.527,3.896-2.116,3.253,2.363c2.69,0.138,4.628-0.436,5.08-3.378
      c0.811-5.272-6.81-7.407-15.29-7.527c-2.919-0.04-13.552-0.308-23.765,7.314c-15.061,11.237-14.187,33.005-13.618,42.17
      c0.042,0.651,0.081,1.246,0.113,1.761l9.794-4.246C110.032,119.187,109.946,118.8,109.956,118.323z"/>
    <path fill="#F58534" d="M114.078,117.78l-3.873,1.679C110.802,120.407,112.36,120.039,114.078,117.78z"/>
    <path fill="#F58534" d="M115.164,116.123c-0.065,0.114-0.129,0.21-0.196,0.317c-0.298,0.499-0.597,0.951-0.89,1.339l8.054-3.493
      c-0.28-0.065-0.543-0.149-0.81-0.227c-1.467-0.432-2.752-1.037-3.848-1.787L115.164,116.123z"/>
  </g>
  <g>
    <path fill="none" d="M151.414,97.146c0,0.147,0.151,0.293,0.146,0.439c0,0.001,0.002,0.003,0.002,0.004
      c0-0.001-0.002-0.003-0.002-0.004C151.565,97.432,151.414,97.287,151.414,97.146z"/>
    <path fill="none" d="M150.949,101.13l2.666,4.685c0.006-0.005,0.011-0.007,0.015-0.009l-2.602-4.55
      C151,101.21,150.975,101.17,150.949,101.13z"/>
    <path fill="none" d="M151.406,99.25c-0.041,0.146-0.088,0.281-0.136,0.409c0.02-0.055,0.048-0.109,0.064-0.165
      C151.362,99.413,151.389,99.332,151.406,99.25z"/>
    <path fill="#A75214" d="M107.159,107.174l0.215,1.867l12.526-2.465c0.434-0.841,0.893-1.598,1.368-2.276L107.159,107.174z"/>
    <path fill="#A75214" d="M127.479,105.182l-0.006,0.393c0,0-0.332,0.062-0.886,0.318c0.318-0.129,0.641-0.236,0.966-0.308
      L127.479,105.182z"/>
    <path fill="#A75214" d="M106.077,111.796l0.511,1.718l11.992-3.8c0.273-0.815,0.577-1.571,0.902-2.275L106.077,111.796z"/>
    <path fill="#A75214" d="M148.538,107.372l0.047-1.698l-12.291-1.995c0.452,0.589,0.899,1.253,1.329,1.989L148.538,107.372z"/>
    <path fill="#A75214" d="M150.619,113.492l0.419-1.745l-12.752-4.825c0.354,0.725,0.681,1.519,0.979,2.375L150.619,113.492z"/>
    <path fill="#A75214" d="M155.306,108.801c3.87-6.331,8.53-14.438,4.388-16.682c-5.342-2.895-10.838,0.196-10.838,0.196
      s-3.234-2.334-6.809-2.984c-2.631-0.479-6.572,1.075-6.572,1.075s-2.579-3.041-7.166-3.348c-3.583-0.239-7.17,3.823-7.17,3.823
      s-3.345-1.674-5.731-1.671c-2.392,0-6.213,1.91-6.213,1.91s-11.229-3.112-12.665,0.717c-1.282,3.422-0.596,5.854,2.868,14.336
      c0,0-3.61,19.588-3.652,26.202c-0.23,37.263,10.269,65.779,18.631,66.017c9.578,0.275,13.391-19.84,15.642-19.84
      c3.623,0,4.139,19.768,13.572,19.724c12.652-0.058,16.102-50.377,15.179-65.822C157.689,114.322,156.739,113.816,155.306,108.801z
       M139.298,92.016c1.075,5.019,5.555,3.226,4.42,0.179c0,0,5.213,1.762,5.135,5.377c-0.116,5.614-12.302,1.433-12.422-3.226
      C136.365,91.793,139.298,92.016,139.298,92.016z M128.37,89.329c1.481,0,2.688,0.723,2.688,1.612c0,0.891-1.204,1.612-2.688,1.612
      c-1.487,0-2.691-0.724-2.691-1.612S126.883,89.329,128.37,89.329z M111.944,92.673c1.375,5.257,6.213,1.493,4.658-1.075
      c0,0,4.563,0.736,4.299,2.508c-0.475,3.226-4.05,5.391-5.852,5.855c-1.727,0.442-6.691,1.073-7.049-2.153
      C107.719,95.272,111.944,92.673,111.944,92.673z M99.042,94.104c0.523-2.837,8.183-0.654,8.183-0.654s-2.393,2.205-2.15,6.989
      c0,0-0.361,0.524-0.75,0.916l-2.474,3.026C99.161,99.005,98.445,97.334,99.042,94.104z"/>
    <polygon fill="#F58534" points="127.553,105.585 127.562,105.583 127.562,105.062 127.479,105.076 127.479,105.182     "/>
    <path fill="#F58534" d="M134.283,96.617c-1.416,0.42-2.678,0.853-3.8,0.989l0.008,5.13l0.13,0.021l-0.102-3.662
      c0,0,3.01,0.995,5.773,4.584l12.292,1.995l-0.047,1.698l-10.916-1.704c0.226,0.395,0.449,0.813,0.665,1.251l12.752,4.825
      l-0.418,1.745l-11.353-4.194c1.017,2.922,1.659,6.63,1.524,11.331c-0.271-0.857-0.545-1.663-0.824-2.425
      c1.354,4.059,2.108,8.341,2.2,11.623c0.159,5.73-4.661,12.899-12.725,12.899c-9.854,0-13.318-7.526-13.318-13.617
      c0-3.602,0.74-7.694,2.015-11.452c-0.368,1.022-0.723,2.125-1.06,3.329c-0.124-4.626,0.501-8.323,1.496-11.271l-11.991,3.8
      l-0.508-1.719l13.401-4.356c0.136-0.298,0.276-0.585,0.419-0.863l-12.527,2.466l-0.215-1.867l14.11-2.875
      c2.73-3.904,5.852-5.23,6.271-5.395l-0.004-1.201c-2.877-0.187-4.186-1.296-4.186-1.296s-5.553,9.632-15.947,6.047
      c-16.486,28.079-1.867,78.496,1.795,86.203c-0.052-0.172-0.083-0.277-0.083-0.277c0.714-1.433,11.589-0.514,11.589-0.514
      s6.039-12.767,9.316-13.169c4.486,0.057,5.089,7.427,7.936,12.651c1.445-0.991,9.474-0.423,11.041-0.349
      c0,0,15.526-62.621-0.74-83.696C141.569,102.709,136.191,100.917,134.283,96.617z M130.021,174.698c0,0-10.811-5.979-9.66-12.649
      c0-15.873,19.552-16.333,19.321,0.229C140.142,169.637,130.021,174.698,130.021,174.698z"/>
    <path fill="#F58534" d="M133.264,107.078l-0.181-0.066c0.443,0.325,0.872,0.694,1.282,1.108
      C133.978,107.706,133.609,107.363,133.264,107.078z"/>
    <polygon fill="#F58534" points="127.553,103.021 127.547,101.381 127.519,103.027     "/>
    <path fill="#FDB660" d="M109.117,188.382c0,0,0.03,0.104,0.082,0.275c0.212,0.692,2.837,6.786,5.469,6.972
      c2.415,0.175,5.975-7.204,6.039-7.761c0.01-0.08-1.317-0.383-1.317-0.383S109.831,186.948,109.117,188.382z"/>
    <path fill="#FDB660" d="M120.361,162.047c-1.151,6.671,9.662,12.65,9.662,12.65s10.119-5.061,9.662-12.42
      C139.915,145.716,120.361,146.175,120.361,162.047z"/>
    <path fill="#502C11" d="M126.587,105.893c-1.684,0.778-5.454,3.394-8.449,11.764c-1.273,3.759-2.013,7.85-2.013,11.451
      c0,6.094,3.464,13.618,13.319,13.618c8.066,0,12.883-7.17,12.726-12.901c-0.094-3.279-0.847-7.562-2.2-11.621
      c-1.916-5.263-3.937-8.314-5.602-10.083c-0.411-0.412-0.84-0.783-1.281-1.108c-1.273-0.938-2.667-1.506-4.18-1.559
      c-0.455-0.015-0.903,0.03-1.346,0.128c-0.002,0-0.004,0.002-0.007,0.002C127.228,105.656,126.905,105.764,126.587,105.893z
       M137.627,135.201c0,1.469-1.591,3.482-3.951,4.758c-2.634,1.758-7.288,1.598-9.808-0.35c-1.96-1.272-3.208-3.067-3.208-4.409
      c0-2.311,2.868-3.227,4.183-3.227c0.612,0,2.583,0.092,3.466,0.599c0.88,0.505,0.671,1.425,1.312,1.434
      c0.566,0.005-0.13-0.978,0.957-1.434c0.831-0.351,2.806-0.583,3.583-0.478C136.481,132.406,137.627,133.964,137.627,135.201z
       M134.044,112.822h-1.913c0.598-2.762-6.569-2.967-6.091,0.02l-2.031-0.07C125.861,105.425,132.491,105.229,134.044,112.822z"/>
    <path fill="#F58534" d="M104.326,101.354c-0.272,0.272-0.558,0.481-0.745,0.399c-1.265-0.564-2.819-4.945-1.553-6.213
      c0.508-0.505,3.719,0.284,3.719,0.284s-0.895,2.106-0.672,4.615c-0.243-4.783,2.15-6.988,2.15-6.988s-7.658-2.184-8.183,0.653
      c-0.597,3.229,0.119,4.902,2.808,10.275L104.326,101.354z"/>
    <path fill="#FFFFFF" d="M115.049,99.962c1.801-0.463,5.377-2.629,5.852-5.854c0.263-1.772-4.299-2.509-4.299-2.509
      c1.555,2.569-3.284,6.332-4.658,1.075c0,0-4.224,2.599-3.944,5.136C108.357,101.036,113.323,100.405,115.049,99.962z"/>
    <path fill="#FFFFFF" d="M148.854,97.572c0.076-3.617-5.134-5.377-5.134-5.377c1.135,3.048-3.348,4.838-4.419-0.179
      c0,0-2.934-0.223-2.869,2.33C136.553,99.004,148.736,103.186,148.854,97.572z"/>
    <path fill="#FDB660" d="M121.269,104.3c-0.475,0.679-0.934,1.435-1.368,2.276c-0.143,0.277-0.283,0.564-0.42,0.862
      c-0.327,0.704-0.628,1.459-0.903,2.274c-0.996,2.95-1.619,6.647-1.498,11.271c0.339-1.203,0.692-2.306,1.058-3.33
      c2.995-8.37,6.765-10.985,8.449-11.764c0.555-0.257,0.886-0.318,0.886-0.318l0.006-0.393v-0.106l0.04-2.048l0.028-1.646
      l0.043-2.497c0,0-0.02,0.009-0.053,0.02C127.121,99.069,123.999,100.396,121.269,104.3z"/>
    <path fill="#FDB660" d="M134.366,108.12c1.665,1.769,3.687,4.82,5.602,10.083c0.279,0.764,0.554,1.567,0.824,2.425
      c0.133-4.701-0.51-8.409-1.526-11.331c-0.298-0.859-0.625-1.651-0.979-2.377c-0.214-0.439-0.439-0.856-0.667-1.252
      c-0.425-0.736-0.873-1.4-1.327-1.989c-2.766-3.589-5.772-4.584-5.772-4.584l0.101,3.662l0.078,2.939c0,0,1.031,0.113,2.565,1.384
      C133.609,107.363,133.978,107.706,134.366,108.12z"/>
    <ellipse fill="#FFFFFF" cx="128.37" cy="90.941" rx="2.688" ry="1.612"/>
    <path fill="#C2053C" d="M130.579,132.573c-1.085,0.456-0.389,1.438-0.957,1.433c-0.64-0.006-0.431-0.928-1.312-1.433
      c-0.882-0.505-2.854-0.599-3.466-0.599c-1.313,0-4.181,0.917-4.181,3.226c0,1.34,1.245,3.137,3.206,4.409
      c-0.883-0.684-1.509-1.586-1.682-2.707l2.507-0.09c0.089,1.883,7.885,2.24,8.691-0.179l2.241-0.179
      c0,1.554-0.775,2.717-1.949,3.502c2.361-1.273,3.95-3.287,3.95-4.757c0-1.237-1.146-2.796-3.466-3.105
      C133.386,131.991,131.41,132.224,130.579,132.573z"/>
    <path fill="#FFFFFF" d="M124.009,112.771l2.031,0.07c-0.478-2.986,6.689-2.781,6.093-0.02h1.912
      C132.491,105.229,125.861,105.425,124.009,112.771z"/>
    <path fill="#FFFFFF" d="M135.626,136.455l-2.241,0.18c-0.807,2.419-8.602,2.061-8.691,0.179l-2.507,0.092
      c0.174,1.119,0.797,2.023,1.682,2.706c2.518,1.947,7.173,2.106,9.808,0.35C134.852,139.175,135.626,138.01,135.626,136.455z"/>
    <path fill="#FDB660" d="M105.746,95.825c0,0-3.21-0.79-3.718-0.283c-1.267,1.266,0.29,5.646,1.553,6.213
      c0.187,0.083,0.473-0.127,0.743-0.4c0.389-0.392,0.75-0.916,0.75-0.916C104.85,97.93,105.746,95.825,105.746,95.825z"/>
    <path fill="#FDB660" d="M152.539,102.722c-0.008-0.003-0.015-0.008-0.021-0.012C152.524,102.714,152.531,102.718,152.539,102.722z
      "/>
  </g>
  <path fill="#FDB660" d="M149,187.001c0,0-0.032,0.104-0.083,0.277c-0.212,0.688-2.836,6.785-5.471,6.972
    c-2.414,0.173-5.973-7.205-6.037-7.762c-0.01-0.081,1.316-0.385,1.316-0.385S148.283,185.566,149,187.001z"/>
  <path fill="#F58534" d="M151.933,102.815c0,0,1.379-3.45-1.209-8.281c0,0,7.237-2.575,7.782,0.26
    c0.621,3.229-2.951,9.401-4.331,11.472L151.933,102.815z"/>
  <path fill="#FDB660" d="M151.545,96.514c0,0,3.332-0.79,3.859-0.284c1.315,1.268-0.3,5.645-1.612,6.211
    c-0.194,0.084-0.489-0.125-0.773-0.398c-0.401-0.391-0.775-0.915-0.775-0.915C152.475,98.619,151.545,96.514,151.545,96.514z"/>
</g>
<g>
  <ellipse fill-opacity="0.65" cx="225.613" cy="165.805" rx="53.863" ry="4.524"/>
  <path fill="#A75214" d="M268.594,136.063c0,0-1.371,16.25-0.785,17.815c0.482,1.284,2.133,4.806,2.058,6.95
    c-0.099,2.738-1.62,4.486-3.034,4.602c-9.596,0.784-16.348-13.703-16.348-13.703c-2.055,2.153-0.767,15.985-8.613,15.76
    c-6.854-0.195-7.27-9.666-7.27-9.666c-17.131,1.908-23.861-0.221-23.861-0.221s2.839,3.816,2.251,7.146
    c-0.265,1.494-1.366,3.234-2.446,3.619c-9.594,3.428-14.781-11.305-21.242-16.788c0,0-2.839,2.839-2.937,5.874
    c0,0,0.202,3.3,0.294,4.699c0.195,3.033-4.405,4.992-7.489,2.057c-11.457-10.913-8.833-30.783-8.5-33.646
    c1.19-10.228,6.688-22.299,6.688-22.299c0.391-6.068-3.135-24.865,11.354-36.612c10.007-8.113,18.601-7.439,21.146-7.439
    c10.379,0,16.341,4.094,15.662,8.614c-1.176,7.833-10.768,3.936-15.662,4.308c-15.467,1.174-18.403,9.595-18.403,12.727
    c0,3.547,4.11,10.376,10.962,9.005c7.863-1.571,18.992-3.328,28.78-14.096c-2.839-6.95-3.4-8.943-2.349-11.747
    c1.174-3.137,10.379-0.587,10.379-0.587s3.129-1.565,5.09-1.566c1.955-0.001,4.697,1.371,4.697,1.371s2.938-3.33,5.877-3.133
    c3.758,0.25,5.871,2.743,5.871,2.743s3.229-1.273,5.383-0.882c2.932,0.533,5.58,2.446,5.58,2.446s2.146-1.493,4.699-1.174
    c3.135,0.39,3.242,1.165,3.328,2.152c0.15,1.756,0.326,5.317,0,7.049c-0.283,1.505-0.783,3.523-2.74,5.482
    c1.174,4.111,3.607,4.519,2.84,19.382C279.164,119.568,268.594,136.063,268.594,136.063z"/>
  <g>
    <polygon fill="#F58534" points="254.273,84.322 254.273,83.858 254.193,83.874    "/>
    <path fill="#F58534" d="M271.236,82.418c-5.482-0.488-9.889-1.958-11.453-5.48c-1.16,0.344-2.194,0.698-3.113,0.811l0.008,4.203
      l14.827,2.408l-0.039,1.392l-12.635-1.973l14.683,5.557l-0.342,1.43l-16.486-6.091l0.015,7.805h-2.4l-0.021-7.144l-17.19,5.449
      l-0.418-1.408l15.981-5.195l-14.918,2.938l-0.176-1.532l16.711-3.403l-0.014-4.356c-2.359-0.153-3.43-1.063-3.43-1.063
      s-4.551,7.893-13.067,4.956c-3.522,4.699-5.714,6.206-6.937,7.387c3.705,6.526-0.697,5.352-2.266,2.124
      c-0.976,0.908-2.072,1.742-3.256,2.511c-0.279,0.182,1.322,0.902,2.276,2.968c0.588,1.273,0.294,6.265-2.839,2.839
      c-0.309-0.337-0.783-0.882-2.086-4.267c-0.873,0.458-1.774,0.883-2.688,1.282l1.494,3.914c2.767,9.468-4.646,2.394-4.049-2.879
      c-1.082,0.405-2.168,0.775-3.24,1.111l1.416,3.824c1.901,12.14-5.008,2.573-4.19-3.016c-2.115,0.569-4.472,1.107-4.472,1.107
      l0.822,3.827c1.575,12.544-3.656,0.849-3.832-3.306c-1.218,0.194-2.349,0.271-3.39,0.24l-0.356,3.352
      c-2.345,11.719-4.979,1.734-2.366-3.708c-1.488-0.349-2.756-0.924-3.816-1.65l-1.894,3.154c-3.646,6.421-7.356,2.108-0.2-5.005
      c-0.75-0.862-1.33-1.779-1.761-2.68l-3.028,1.491c-3.918,0.461-5.524-2.823,2.074-4.46c-0.035-0.232-0.06-0.452-0.07-0.652
      c-0.045-0.954,0.019-1.894,0.177-2.813l-2.035-0.514c-3.582-2.324-0.463-4.209,2.823-2.17c0.393-0.928,0.9-1.821,1.529-2.67
      l-1.515-1.231c-3.229-4.306,1.077-4.698,3.328-0.782l2.862-2.154l-0.809-1.688c-0.675-3.411,3.324-1.927,3.157,0.471
      c1.176-0.53,3.499-1.327,3.499-1.327l-0.096-1.86c0.382-2.203,2.518-1.658,2.886,1.207c1.569-0.321,4.358-0.693,4.358-0.693
      l-0.073-1.028c0.097-2.643,3.659-3.177,3.229,0.954c0,0,2.105,0.229,3.385,0.41l0.435-1.584c0.287-1.25,3.188-1.734,2.665,1.938
      c2.205,0.112,3.792-0.358,4.162-2.769c0.664-4.319-5.579-6.07-12.529-6.167c-2.393-0.033-11.105-0.252-19.477,5.993
      c-13.223,9.866-11.461,29.638-11.069,36c0,0-5.714,11.64-6.924,21.526c-0.349,2.842-2.962,20.859,7.903,31.14
      c2.207,2.088,2.848-0.528,2.936-1.959c0.083-1.336,0.051-1.899,0.002-3.03c-0.094-2.154,3.721-7.344,3.721-7.344
      c-9.008-7.732-10.021-17.962-9.809-18.207c0.195-0.223,1.29,0.766,1.449,0.588c0.404-0.447,1.896,10.082,10.219,16.445
      c3.132,1.664,11.355,18.218,17.424,16.74c0.885-0.217,4.112,0.125,4.112-1.861c0-2.059-10.132-16.176-2.058-27.507l2.058,0.588
      c-5.579,7.414-1.322,18.5-1.322,18.5c8.002,2.569,24.815,0.296,24.815,0.296c-0.293-13.51,1.615-18.355,1.615-18.355l2.349-0.733
      c0,0-4.513,25.743,1.321,26.578l5.385-0.835c0.359-0.42,0.684-3.815,2.349-9.006c0.392-1.271,9.154-16.982,10.033-18.354
      c0.313-0.482,1.715-0.441,2.397,0.342c-1.271,4.991-8.785,15.209-8.785,15.209l10.646-8.846c0,0,13.998-16.641,15.661-34.463
      C278.823,92.027,272.02,83.398,271.236,82.418z"/>
  </g>
  <path fill="#FDB660" d="M234.527,154.663c0,0-15.418,2.351-24.816-0.294c-1.174-3.818-3.523-10.866,0-16.445
    c3.965,1.469,14.684,2.79,25.696,0.146C233.939,145.412,234.527,154.663,234.527,154.663z"/>
  <path fill="#FDB660" d="M245.293,161.518c-1.32,3.965-4.305,4.6-6.654,0.486c-0.57-0.995-1.175-3.083-1.175-3.083
    c0.586-1.175,8.419-0.733,8.419-0.733S245.631,160.505,245.293,161.518z"/>
  <path fill="#F58534" d="M265.852,138.902c0,0-1.043,13.77-0.488,15.269c0.451,1.228,1.504,4.712,2.154,6.658l-7.733-0.731
    c-4.405-3.477-7.048-9.154-7.048-9.154S261.348,146.439,265.852,138.902z"/>
  <path fill="#FDB660" d="M267.419,161.125c-0.588,2.202-1.731,2.107-3.229,1.908c-2.203-0.295-4.405-2.938-4.405-2.938
    c0.44-2.645,6.362-3.572,6.362-3.572S267.693,160.094,267.419,161.125z"/>
  <path fill="#FDB660" d="M268.594,129.994c-5.14,12.335-17.402,19.518-17.402,19.518s9.912-14.379,11.382-23.335
    C264.48,121.771,273.292,118.395,268.594,129.994z"/>
  <path fill="#502C11" d="M255.818,114.725c6.606,0,10.557-5.877,10.426-10.572c-0.196-7.048-4.112-19.741-10.866-19.969
    c-5.774-0.196-10.478,11.159-10.478,19.381C244.9,108.557,247.742,114.725,255.818,114.725z"/>
  <path fill="#FDB660" d="M211.131,163.768c0.146,2.789-3.007,3.146-4.504,2.937c-2.932-0.411-8.811-8.519-8.811-8.519
    c7.342,3.231,12.188,1.763,12.188,1.763S211.074,162.701,211.131,163.768z"/>
  <path fill="#FDB660" d="M184.406,161.417c0,1.322-0.905,2.058-2.447,1.47c-2.766-1.053-6.46-9.396-6.46-9.396
    c5.774,4.893,8.319,3.916,8.319,3.916S184.406,160.35,184.406,161.417z"/>
  <path fill="#F58534" d="M237.609,74.342c0,0-6.274-1.789-6.705,0.537c-0.488,2.647,0.098,4.016,2.301,8.421l2.645-3.23
    C235.65,76.151,237.609,74.342,237.609,74.342z"/>
  <path fill="#F58534" d="M275.643,84.475c1.564-0.782,2.152-2.445,2.349-3.424c0.331-1.651,0.141-3.804,0-5.483
    c-0.081-0.945-1.787-1.944-4.698-0.489c1.76,2.349,0,5.286,0,5.286L275.643,84.475z"/>
  <path fill="#FFFFFF" d="M248.816,74.881c-0.389,2.645-3.319,4.418-4.795,4.798c-1.414,0.362-5.482,0.88-5.774-1.764
    c-0.231-2.08,3.229-4.209,3.229-4.209c1.127,4.308,5.092,1.223,3.816-0.882C245.293,72.825,249.034,73.429,248.816,74.881z"/>
  <path fill="#FFFFFF" d="M271.725,77.719c-0.096,4.602-10.082,1.176-10.181-2.643c-0.054-2.09,2.351-1.909,2.351-1.909
    c0.881,4.112,4.551,2.644,3.623,0.146C267.518,73.314,271.787,74.759,271.725,77.719z"/>
  <path fill="#FDB660" d="M245.686,96.907c-0.393-14.88,8.614-18.109,8.614-18.109l-0.097,5.482
    C254.203,84.28,248.966,85.209,245.686,96.907z"/>
  <path fill="#FDB660" d="M265.117,96.614c0.417-14.732-8.418-17.646-8.418-17.646l0.146,5.408
    C256.848,84.377,261.396,84.868,265.117,96.614z"/>
  <ellipse fill="#FFFFFF" cx="254.938" cy="72.287" rx="2.203" ry="1.322"/>
  <path fill="#C2053C" d="M262.523,108.557c0,1.893-3.209,4.895-7.049,4.895s-6.853-3.002-6.853-4.895s2.349-2.645,3.427-2.645
    c0.501,0,2.117,0.076,2.84,0.49c0.721,0.414,0.551,1.168,1.075,1.175c0.464,0.005-0.104-0.8,0.784-1.175
    c0.68-0.286,2.3-0.478,2.938-0.393C261.585,106.266,262.523,107.543,262.523,108.557z"/>
  <path fill="#FFFFFF" d="M258.021,90.218c0.489-2.263-5.383-2.431-4.992,0.016l-1.663-0.057c1.517-6.021,6.948-6.181,8.223,0.041
    H258.021z"/>
  <path fill="#FFFFFF" d="M259.049,109.73c-0.66,1.981-7.049,1.688-7.121,0.146l-2.057,0.074c0.734,4.698,11.013,4.772,11.013-0.366
    L259.049,109.73z"/>
  <path fill="#FDB660" d="M235.85,80.07c0,0-0.854,1.244-1.225,1.077c-1.036-0.463-2.313-4.052-1.271-5.09
    c0.414-0.416,3.047,0.233,3.047,0.233S235.664,78.015,235.85,80.07z"/>
  <path fill="#FDB660" d="M273.292,80.364c0,0,1.371,2.545,2.46,1.32c0.755-0.847,1.699-4.614,0.662-5.653
    c-0.416-0.414-2.423,0.295-2.423,0.295S274.43,78.712,273.292,80.364z"/>
</g>
<rect opacity="0.8" fill="#65572B" enable-background="new    " width="280" height="200"/>
</svg>
