<?xml version="1.0" ?><svg height="64px" id="Слой_1" style="enable-background:new 0 0 64 64;" version="1.1" viewBox="0 0 64 64" width="64px" xml:space="preserve" xmlns="http://www.w3.org/2000/svg" xmlns:xlink="http://www.w3.org/1999/xlink"><g id="row_5"><g id="cat"><path d="M52.6,13.5C50.2,7.3,44.1,2.9,37.1,2.9c-6.2,0-11.5,3.4-14.5,8.3c-0.8,1.4-2.3,2.3-4,2.3l-3.8,14.2    c0,4.4,1.5,8.4,4,11.6c-0.3,4.7-1,9.2-2.1,13.6c-0.1,0.4-0.5,0.7-0.9,0.7c-0.4,0-0.8,0.1-1.1,0.1c-1,0.2-1.8,1.1-1.8,2.2    c0,1.1,0.9,2.1,2.1,2.2c0.7,0.1,1.3,0.1,2,0.1c1.9,0,3.6-1.3,4.2-3.1c2.3-6.2,3.8-12.9,4.4-19.8c0,0,7.3-1.7,11.8-6.5    c2.4,2.5,3.9,5.8,4.1,9.5c0.2,3,0.6,11.4,0.7,15.3c0,0.4-0.3,0.8-0.7,1c-0.7,0.2-1.4,0.5-2.1,0.8c-0.7,0.3-1.1,0.9-1.2,1.7    c0,0,0,0,0,0c-0.1,1.1,0.7,2,1.7,2.1c2.3,0.3,4.7,0.1,6.9-0.4L52.6,13.5z" style="fill:#37474F;"/><path d="M61.7,31.8c-0.4-0.3-1-0.9-0.9-1.5c0.1-1.3,0.3-2.5,0.4-3.8c0.3-2.6,0.6-5.3,0.6-8.1    c0-3.5-2.5-6.6-5.9-7.1c-1.3-0.2-2.5,0-3.6,0.4c-1,0.4-2.1,0-2.7-0.8c-3.2-3.7-8.1-6.1-13.4-6.1c-5.5,0-10.6,2.3-13.6,6.4    c-0.9,1.3-2.3,2.3-4,2.3l-3.3,15c0.9,5.2,4.1,9.5,8.6,11.9c-0.2,4.9-0.6,9.7-1.4,14.4c-0.1,0.5-0.5,0.8-1,0.8    c-0.6,0-1.3,0.1-1.9,0.2c-1.1,0.2-1.9,1.1-2,2.2l0,0c-0.1,1.2,0.6,2.3,1.8,2.6c1.4,0.4,2.9,0.4,4.3,0.2c0.9-0.2,1.6-0.8,2-1.6    c3.1-6.9,5.2-14.3,6.1-22.1c2.9-1.4,5.5-3.6,7.4-6.2c2.4,0.9,4.2,3.1,4.5,5.9c0.7,5.9,1.2,11.9,1.5,17.9c0,0.4-0.2,0.7-0.5,0.9    c-0.7,0.4-1.4,0.9-1.9,1.5c-0.3,0.3-0.5,0.7-0.6,1.1c0,0,0,0.1,0,0.1C41.6,59.8,42.7,61,44,61c1.2,0,2.4,0,3.6,0    c1.4-0.1,2.5-1.1,2.7-2.5c0.8-5.8,1.3-11.7,1.5-17.6c0.1-2.4,0.3-4.8,0.7-7.2c0.6-3.7,1.1-7.4,1.2-11.2c0-0.1,0-0.2,0-0.3    c0.9-2.6,2-5.4,2.3-4.7c0.7,1.5,0.5,6,0.2,8.5c-0.2,1.3-0.3,2.6-0.4,3.9c-0.2,2.3,1,4.6,3.1,6c0.4,0.3,0.9,0.4,1.4,0.4    c0.8,0,1.6-0.4,2.1-1.1C63.2,34.1,62.8,32.5,61.7,31.8z" style="fill:#212121;"/><g><path d="M4,21.4c-1.4-2.6-2.2-5.5-2.2-8.7c0,0,1.5,2.9,4,4.4C5.7,17,4.4,18.1,4,21.4z" style="fill:#546E7A;"/><path d="M12.7,14.2C11.1,15.6,9,15.9,7,15.3c-3.1-1-4.7-3.3-4.8-5.8C2.1,9,1.5,9,1.4,9.4     c-0.4,1.6-0.3,3.4,0.4,5c1.7,3.7,5.9,5.4,9.7,3.9C15.1,16.9,14.3,12.8,12.7,14.2z" style="fill:#37474F;"/></g><path d="M26.9,16.8c0-3.5,1-6.8,2.7-9.6l-8.8,5.1L26.9,16.8z" style="fill:#757575;"/><path d="M29.8,6.6c-3.3,1.8-6.9,3.2-10.7,4c-1.3-0.5-2.7-0.8-4.2-0.8c-6,0-10.9,4.6-11.4,10.5    c-0.5,0.8-0.8,1.8-0.8,2.8c0,2.6,2,4.8,4.5,5.2c1.6,1,3.1,2.1,4.4,3.3c0.8,0.7,1.9,1.2,3,1.2c0.1,0,0.2,0,0.3,0    c0.6,0,1.3-0.1,1.9-0.2c0.3-0.1,0.6-0.2,0.8-0.5c0.8-1.1,1.4-2.3,1.9-3.6c0.2-0.6,0.8-0.9,1.4-0.9c3.2,0.3,6.3-1.7,7.3-5    c0.9-3.1-0.5-6.1-3-7.9c-0.9-0.6-2.3-1.9-3.3-2.7c3.1-1.1,6-2.9,8.4-5.1C30.3,6.8,30.1,6.4,29.8,6.6z" style="fill:#263238;"/><path d="M8.8,25.6c1.4,1.1,2.6,2.4,3.5,4c0.2,0.4,0.6,0.6,1,0.5c0.7-0.1,1.3-0.3,1.9-0.6    c0.6-0.2,1.1-0.8,1.3-1.5c0.4-1.5,0.9-3,1.6-4.4c0.3-0.6-0.4-1.2-1-0.9c-2,1.1-4.2,1.6-6.5,1.5C9.9,24.7,9.3,25.1,8.8,25.6z" style="fill:#F44336;"/><path d="M13.6,24.1c0.2,0.7,0.3,1.5,0.2,2.1c0,0.3-0.2,0.5-0.2,0.5c-0.1-0.9-0.6-1.7-0.9-2.5    C13,24.2,13.3,24.1,13.6,24.1z M10.1,27c0.1,0.1,0.5,0.4,0.5,0.4c-0.3-0.8-0.4-1.8-0.6-2.7c-0.3,0.2-0.6,0.4-0.8,0.6    C9.4,25.9,9.7,26.5,10.1,27z" style="fill:#FFFFFF;"/><path d="M10.7,23.8c0-0.3,0.1-0.7,0.2-1c0.3-0.7,0.1-0.8-0.3-0.9c-0.8-0.2-0.7,0.6-1.4,0.4    c-0.2,0-0.3,0-0.4,0c-0.4,0.2-0.4,0.5,0.1,0.9c0.4,0.3,0.7,0.6,0.9,0.9C10.1,24.8,10.7,24.2,10.7,23.8z" style="fill:#757575;"/><g><path d="M8.9,20.7C8.4,19.7,7.9,19,6.8,19C6.4,19,6,19,5.6,19.2c-0.4,0.1-0.7,0.5-0.7,1l-0.1,0.7     c0,0.2,0.2,0.4,0.4,0.3C6.4,20.8,7.6,20.7,8.9,20.7z" style="fill:#FFEE58;"/><path d="M17.1,16.8c-0.5-0.4-1.9-0.9-3.3-0.2c-0.5,0.3-0.9,0.7-1.2,1.2c-0.3,0.6-0.4,1.2-0.5,1.8     C14,19.4,15.8,18.4,17.1,16.8z" style="fill:#00E5FF;"/></g></g></g></svg>